#!OML:ASF F:\VICON\USERDATA\INSTALL\rory3\rory3.ASF
:FULLY-SPECIFIED
:DEGREES
523
root 4.6289 15.9374 2.069 21.3656 -8.05713 -3.70314
lowerback 11.0467 -0.452409 3.57472
upperback 2.67525 -0.173524 0.795685
thorax -3.40605 -0.112966 -1.16175
lowerneck -15.1575 -0.80552 -1.27537
upperneck 37.5618 -0.142425 -2.00902
head 15.8588 -0.560482 -0.674586
rclavicle 3.62782e-014 -1.8487e-014
rhumerus -67.7693 40.9282 -84.2434
rradius 70.8666
rwrist -8.31144
rhand -10.8691 -40.4913
rfingers 7.12502
rthumb 15.1466 -69.917
lclavicle 3.62782e-014 -1.8487e-014
lhumerus -57.1697 -58.5411 81.5114
lradius 59.259
lwrist 29.9992
lhand -19.3513 -30.7723
lfingers 7.12502
lthumb 6.966 -0.906902
rfemur -75.1304 2.61101 17.3124
rtibia 37.8859
rfoot 38.9789 1.80528
rtoes 4.60231
lfemur -54.2584 -1.82423 -26.0043
ltibia 59.2102
lfoot -24.0127 6.8063
ltoes 13.2306
524
root 4.62336 15.9244 2.06377 21.403 -8.18074 -3.75267
lowerback 11.1727 -0.4092 3.46798
upperback 2.69255 -0.122806 0.815595
thorax -3.45498 -0.08784 -1.08771
lowerneck -15.1896 -0.785768 -1.23129
upperneck 37.4655 -0.110167 -2.05398
head 15.818 -0.546454 -0.694791
rclavicle -1.799e-014 3.77691e-015
rhumerus -68.0252 41.1028 -84.4321
rradius 70.5717
rwrist -8.30759
rhand -11.5766 -39.9563
rfingers 7.12502
rthumb 14.4649 -69.4322
lclavicle -1.799e-014 3.77691e-015
lhumerus -57.928 -59.0094 82.011
lradius 59.1689
lwrist 30.2985
lhand -20.7034 -31.5437
lfingers 7.12502
lthumb 5.6607 -1.6393
rfemur -75.2422 2.9002 17.1165
rtibia 37.9093
rfoot 39.0771 1.42515
rtoes 5.07037
lfemur -54.4226 -1.66814 -25.9794
ltibia 59.3372
lfoot -23.9921 6.83926
ltoes 13.2174
525
root 4.61975 15.9116 2.06015 21.4285 -8.34346 -3.62475
lowerback 11.2744 -0.364125 3.21173
upperback 2.70774 -0.0899115 0.786732
thorax -3.49374 -0.0703016 -0.978001
lowerneck -15.1467 -0.767288 -1.1821
upperneck 37.2997 -0.0582745 -2.16523
head 15.7246 -0.531825 -0.739039
rclavicle -1.73937e-014 -3.77691e-015
rhumerus -68.2504 41.221 -84.495
rradius 70.4928
rwrist -8.32076
rhand -11.1161 -40.2764
rfingers 7.12502
rthumb 14.9086 -69.7199
lclavicle -1.73937e-014 -3.77691e-015
lhumerus -58.4047 -59.4145 82.2256
lradius 59.1249
lwrist 30.8635
lhand -20.6154 -31.5371
lfingers 7.12502
lthumb 5.74569 -1.635
rfemur -75.4019 3.06193 16.8158
rtibia 37.9817
rfoot 39.172 1.40402
rtoes 5.42314
lfemur -54.5471 -1.57843 -26.1556
ltibia 59.4344
lfoot -23.9519 6.87124
ltoes 13.2554
526
root 4.6213 15.9036 2.06259 21.3879 -8.40206 -3.48389
lowerback 11.3582 -0.366996 3.08007
upperback 2.72581 -0.107107 0.758027
thorax -3.52168 -0.078114 -0.931211
lowerneck -15.1325 -0.789304 -1.2812
upperneck 37.321 -0.0745765 -2.12487
head 15.7323 -0.547148 -0.70717
rclavicle 5.26779e-015 4.96962e-015
rhumerus -68.5505 41.507 -84.6217
rradius 70.394
rwrist -8.56444
rhand -11.0876 -40.3994
rfingers 7.12502
rthumb 14.9361 -69.8408
lclavicle 5.26779e-015 4.96962e-015
lhumerus -58.6767 -59.3984 82.2909
lradius 58.9236
lwrist 30.7606
lhand -19.1192 -30.7818
lfingers 7.12502
lthumb 7.19006 -0.923909
rfemur -75.48 2.9984 16.6834
rtibia 38.1415
rfoot 39.0934 1.65017
rtoes 5.1932
lfemur -54.5155 -1.59248 -26.342
ltibia 59.4888
lfoot -23.9441 6.91739
ltoes 13.2426
527
root 4.62553 15.9046 2.0672 21.3795 -8.39653 -3.46129
lowerback 11.3173 -0.379791 3.13273
upperback 2.77347 -0.12107 0.753106
thorax -3.44998 -0.0840305 -0.964205
lowerneck -15.2808 -0.826109 -1.42899
upperneck 37.6212 -0.124897 -1.99368
head 15.9205 -0.573729 -0.63951
rclavicle 9.24349e-015 9.54166e-015
rhumerus -68.8212 42.0618 -84.7424
rradius 70.3136
rwrist -8.96753
rhand -11.5228 -40.1544
rfingers 7.12502
rthumb 14.5168 -69.6266
lclavicle 9.24349e-015 9.54166e-015
lhumerus -58.845 -59.0891 82.2652
lradius 58.6737
lwrist 30.0914
lhand -18.4125 -30.5018
lfingers 7.12502
lthumb 7.8722 -0.668331
rfemur -75.5365 2.90008 16.7266
rtibia 38.3309
rfoot 38.9851 1.81909
rtoes 5.0366
lfemur -54.4719 -1.61449 -26.3842
ltibia 59.4854
lfoot -23.9768 6.90066
ltoes 13.2726
528
root 4.62965 15.9015 2.07077 21.3954 -8.3741 -3.29957
lowerback 11.2789 -0.402818 3.07326
upperback 2.76868 -0.161272 0.708735
thorax -3.43554 -0.103303 -0.971366
lowerneck -15.1683 -0.802244 -1.41014
upperneck 37.7275 -0.063141 -2.08199
head 15.9479 -0.558245 -0.671111
rclavicle 1.71949e-014 -9.93923e-015
rhumerus -69.1212 41.7838 -84.8775
rradius 70.1397
rwrist -8.48398
rhand -11.4804 -39.9565
rfingers 7.12502
rthumb 14.5577 -69.4257
lclavicle 1.71949e-014 -9.93923e-015
lhumerus -59.2883 -59.0674 82.4494
lradius 58.57
lwrist 29.9277
lhand -19.0873 -30.8256
lfingers 7.12502
lthumb 7.22085 -0.968763
rfemur -75.6868 2.7203 16.6382
rtibia 38.5313
rfoot 38.987 1.87544
rtoes 4.95781
lfemur -54.5009 -1.74519 -26.5436
ltibia 59.4906
lfoot -23.9906 6.86718
ltoes 13.2954
529
root 4.63161 15.8943 2.06916 21.3946 -8.36966 -3.06814
lowerback 11.3475 -0.408815 2.89801
upperback 2.76935 -0.189013 0.647109
thorax -3.47353 -0.116311 -0.932745
lowerneck -15.0212 -0.788865 -1.32952
upperneck 37.6096 -0.0140315 -2.23686
head 15.8526 -0.545948 -0.740351
rclavicle -2.68359e-015 -6.85807e-015
rhumerus -69.3089 41.6746 -84.9585
rradius 69.9359
rwrist -8.33594
rhand -10.976 -40.0495
rfingers 7.12502
rthumb 15.0437 -69.4829
lclavicle -2.68359e-015 -6.85807e-015
lhumerus -59.8112 -59.3656 82.7229
lradius 58.5083
lwrist 30.1724
lhand -19.523 -30.8517
lfingers 7.12502
lthumb 6.80029 -0.980952
rfemur -75.8447 2.5683 16.4403
rtibia 38.6711
rfoot 38.9789 2.04187
rtoes 4.42921
lfemur -54.5563 -1.8632 -26.781
ltibia 59.5229
lfoot -24.026 6.91669
ltoes 13.261
530
root 4.63362 15.8863 2.0699 21.4061 -8.3306 -3.16384
lowerback 11.3743 -0.409096 3.05299
upperback 2.86813 -0.173315 0.643816
thorax -3.38482 -0.107678 -1.02579
lowerneck -15.3773 -0.820341 -1.27717
upperneck 37.7776 -0.0648043 -2.23966
head 16.0242 -0.561995 -0.765849
rclavicle 2.31584e-014 -6.55989e-015
rhumerus -69.3518 41.6787 -84.9732
rradius 69.7934
rwrist -8.41915
rhand -10.3459 -40.466
rfingers 7.12502
rthumb 15.6506 -69.853
lclavicle 2.31584e-014 -6.55989e-015
lhumerus -60.016 -59.662 82.67
lradius 58.426
lwrist 30.2963
lhand -19.2405 -30.5794
lfingers 7.12502
lthumb 7.07302 -0.717618
rfemur -75.9282 2.51935 16.6059
rtibia 38.7918
rfoot 38.9379 2.18746
rtoes 4.15017
lfemur -54.6286 -1.81119 -26.7099
ltibia 59.6453
lfoot -24.0837 7.00517
ltoes 13.0445
531
root 4.6382 15.8875 2.07265 21.4235 -8.16638 -3.43775
lowerback 11.3399 -0.455958 3.46537
upperback 3.00383 -0.19148 0.689166
thorax -3.22542 -0.115416 -1.20855
lowerneck -15.79 -0.869454 -1.29609
upperneck 37.9591 -0.14766 -2.16506
head 16.2182 -0.590827 -0.751755
rclavicle -7.35503e-015 -1.03368e-014
rhumerus -69.3628 41.6824 -84.9589
rradius 69.7367
rwrist -8.44717
rhand -9.96714 -40.8228
rfingers 7.12502
rthumb 16.0153 -70.1808
lclavicle -7.35503e-015 -1.03368e-014
lhumerus -59.9652 -59.6904 82.3656
lradius 58.3146
lwrist 30.0472
lhand -19.0598 -30.3493
lfingers 7.12502
lthumb 7.24743 -0.493382
rfemur -75.8706 2.40379 17.037
rtibia 38.8096
rfoot 38.9455 1.98007
rtoes 4.84519
lfemur -54.6674 -1.76478 -26.4296
ltibia 59.7626
lfoot -24.11 6.98255
ltoes 12.9091
532
root 4.63639 15.8778 2.07487 21.4433 -8.07886 -3.62449
lowerback 11.4014 -0.455105 3.67991
upperback 3.07312 -0.162748 0.758213
thorax -3.18546 -0.10097 -1.26137
lowerneck -15.7929 -0.915469 -1.37235
upperneck 37.8342 -0.189066 -2.16835
head 16.1546 -0.617589 -0.74445
rclavicle 3.77691e-015 2.50469e-014
rhumerus -69.5485 41.6814 -85.0224
rradius 69.5386
rwrist -8.30508
rhand -10.2203 -40.5327
rfingers 7.12502
rthumb 15.7715 -69.9102
lclavicle 3.77691e-015 2.50469e-014
lhumerus -60.0104 -59.5313 82.2528
lradius 58.1379
lwrist 29.5718
lhand -19.1724 -30.5168
lfingers 7.12502
lthumb 7.13877 -0.657245
rfemur -75.8564 2.41673 17.2708
rtibia 38.768
rfoot 39.0343 1.62626
rtoes 5.21055
lfemur -54.7734 -1.66119 -26.2378
ltibia 59.9046
lfoot -24.1435 6.82274
ltoes 13.0428
533
root 4.6327 15.876 2.07097 21.4323 -8.24543 -3.70752
lowerback 11.6381 -0.37369 3.60118
upperback 3.05372 -0.0514468 0.807749
thorax -3.33025 -0.0483512 -1.18067
lowerneck -15.6418 -0.897241 -1.37157
upperneck 37.7389 -0.115633 -2.29756
head 16.0697 -0.603503 -0.784337
rclavicle -2.34069e-014 1.98785e-014
rhumerus -69.9298 41.8413 -85.2275
rradius 69.2938
rwrist -8.28912
rhand -10.4458 -40.3793
rfingers 7.12502
rthumb 15.5543 -69.7738
lclavicle -2.34069e-014 1.98785e-014
lhumerus -60.4592 -59.5336 82.5557
lradius 57.9841
lwrist 29.4528
lhand -19.0779 -30.6322
lfingers 7.12502
lthumb 7.22994 -0.775725
rfemur -75.8329 2.67605 17.2445
rtibia 38.673
rfoot 39.1791 1.36193
rtoes 5.13538
lfemur -54.8188 -1.42674 -26.1971
ltibia 59.961
lfoot -24.1456 6.71242
ltoes 13.1096
534
root 4.63465 15.8816 2.07016 21.4566 -8.3939 -3.74043
lowerback 11.7891 -0.333634 3.5249
upperback 2.97115 0.00284662 0.839819
thorax -3.49703 -0.0246223 -1.11187
lowerneck -15.3882 -0.871427 -1.37729
upperneck 37.6785 -0.0410611 -2.40728
head 15.9781 -0.587625 -0.814251
rclavicle -7.95139e-015 1.36167e-014
rhumerus -70.483 42.2208 -85.5273
rradius 69.2727
rwrist -8.63382
rhand -10.6354 -40.7057
rfingers 7.12502
rthumb 15.3717 -70.1143
lclavicle -7.95139e-015 1.36167e-014
lhumerus -61.393 -59.7544 83.2977
lradius 57.9108
lwrist 29.7989
lhand -19.2868 -30.6283
lfingers 7.12502
lthumb 7.02829 -0.765015
rfemur -75.8535 2.77454 17.2856
rtibia 38.6422
rfoot 39.2375 1.33131
rtoes 5.5322
lfemur -54.8404 -1.26937 -26.2179
ltibia 59.9862
lfoot -24.1845 6.67915
ltoes 13.1247
535
root 4.63805 15.8851 2.07895 21.4839 -8.45775 -3.73939
lowerback 11.6738 -0.318651 3.5067
upperback 2.97316 0.0157023 0.853754
thorax -3.43116 -0.0171333 -1.08906
lowerneck -15.0899 -0.916684 -1.61375
upperneck 37.4481 -0.133967 -2.17288
head 15.7889 -0.624342 -0.680225
rclavicle 4.52235e-015 -9.83984e-015
rhumerus -71.0176 42.7756 -85.8499
rradius 69.1941
rwrist -9.03815
rhand -11.1448 -40.6962
rfingers 7.12502
rthumb 14.881 -70.1417
lclavicle 4.52235e-015 -9.83984e-015
lhumerus -62.0998 -59.911 83.7889
lradius 57.8573
lwrist 29.9893
lhand -19.354 -30.7019
lfingers 7.12502
lthumb 6.96344 -0.836482
rfemur -75.867 2.69966 17.4082
rtibia 38.6486
rfoot 39.2654 1.28589
rtoes 6.61263
lfemur -54.8209 -1.09321 -26.316
ltibia 60.0068
lfoot -24.2023 6.56725
ltoes 13.0387
